<?xml version="1.0" standalone="no"?>
<!DOCTYPE svg PUBLIC "-//W3C//DTD SVG 20010904//EN"
 "http://www.w3.org/TR/2001/REC-SVG-20010904/DTD/svg10.dtd">
<svg version="1.0" xmlns="http://www.w3.org/2000/svg"
 width="400.000000pt" height="400.000000pt" viewBox="0 0 400.000000 400.000000"
 preserveAspectRatio="xMidYMid meet">
<metadata>
Created by potrace 1.14, written by Peter Selinger 2001-2017
</metadata>
<g transform="translate(0.000000,400.000000) scale(0.100000,-0.100000)"
fill="#000000" stroke="none">
<path d="M602 3974 c-47 -37 -88 -125 -97 -208 -4 -41 -17 -89 -30 -115 -29
-56 -95 -206 -95 -215 0 -4 -11 -31 -24 -59 -13 -29 -29 -70 -36 -92 -7 -22
-18 -53 -26 -70 -33 -76 -85 -284 -105 -425 -55 -377 -12 -715 126 -990 149
-296 285 -454 590 -684 36 -28 120 -82 147 -97 15 -8 95 -51 178 -97 122 -68
150 -88 150 -105 0 -12 -11 -29 -24 -37 -13 -8 -63 -42 -111 -75 -47 -33 -102
-69 -120 -80 -19 -12 -42 -28 -52 -36 -35 -30 -306 -209 -317 -209 -3 0 -24
-11 -44 -25 -21 -14 -64 -34 -96 -46 -32 -11 -70 -29 -85 -40 -21 -15 -49 -21
-122 -26 -100 -6 -119 -13 -119 -45 0 -25 57 -98 76 -98 8 0 14 -10 14 -24 0
-62 73 -76 402 -76 282 0 350 8 429 50 49 27 52 26 45 -15 -9 -48 10 -46 23 3
16 58 41 214 41 250 0 59 -18 33 -31 -44 -12 -74 -12 -75 -25 -47 -17 37 -42
68 -50 61 -3 -3 4 -24 15 -46 11 -22 23 -59 27 -81 6 -35 4 -41 -11 -41 -9 0
-56 -14 -103 -31 -76 -26 -107 -31 -247 -39 -88 -4 -191 -5 -230 -2 l-69 7
-14 95 c-21 152 -23 143 22 152 22 5 44 12 50 17 6 5 37 23 70 40 32 18 104
62 160 98 127 82 126 82 214 142 40 28 76 51 81 51 5 0 14 7 21 16 7 8 47 37
89 64 42 27 87 59 99 70 13 11 27 20 30 20 7 -1 46 -59 95 -145 43 -73 77
-189 82 -280 3 -44 8 -111 10 -150 2 -38 5 -103 5 -142 l0 -73 34 0 c98 0 131
43 121 155 -6 56 -4 73 6 77 25 10 58 -10 65 -39 12 -56 16 -63 30 -63 18 0
18 25 -2 82 -16 47 -31 58 -84 58 -50 0 -55 -11 -52 -113 2 -101 -3 -114 -48
-119 -21 -3 -25 3 -36 57 -19 86 -18 105 5 105 23 0 31 -19 31 -76 0 -32 4
-44 15 -44 11 0 15 11 15 39 0 61 -15 91 -50 97 -40 8 -43 50 -5 60 14 3 25
10 25 14 0 5 12 22 26 39 31 38 65 40 130 10 50 -24 74 -60 74 -113 0 -42 9
-68 21 -60 5 3 9 -4 9 -15 0 -10 3 -26 6 -35 4 -10 1 -16 -7 -16 -23 -1 -48
-25 -64 -64 -15 -36 -15 -36 10 -36 18 0 28 7 35 25 12 32 30 32 30 0 0 -15 6
-25 14 -25 13 0 15 40 13 268 l-2 267 38 67 c21 36 44 72 52 78 8 7 15 17 15
22 0 19 316 392 456 538 138 144 164 172 164 180 0 4 28 10 62 14 88 9 185 56
226 110 39 52 75 182 66 235 -11 58 -50 124 -94 155 -22 17 -40 38 -40 48 0
10 11 50 24 90 37 110 53 260 37 345 -31 170 -173 398 -319 512 -68 53 -103
75 -178 113 -139 71 -394 148 -569 173 -60 8 -146 21 -190 29 -44 7 -155 19
-247 27 -246 19 -304 6 -538 -116 -44 -23 -104 -64 -201 -137 -76 -57 -135
-119 -240 -250 -93 -117 -109 -140 -123 -188 -19 -64 -20 -260 -1 -520 14
-201 17 -219 44 -275 48 -98 91 -196 91 -209 0 -6 9 -22 20 -36 11 -14 20 -29
20 -35 0 -5 -16 13 -35 40 -20 28 -42 58 -50 68 -8 9 -15 20 -15 24 0 3 -15
29 -33 57 -70 109 -138 269 -162 381 -37 172 -44 219 -48 316 -9 235 32 542
97 726 15 40 26 77 26 83 0 5 11 33 24 62 14 29 28 67 32 83 4 17 18 50 31 74
12 24 23 48 23 53 0 5 16 45 36 88 l37 80 31 -23 c17 -13 45 -31 61 -39 39
-21 279 -48 418 -48 77 0 132 -6 186 -20 42 -11 120 -29 174 -41 l99 -22 -7
-58 c-6 -52 -5 -58 15 -69 12 -7 84 -14 159 -17 161 -7 172 -2 194 87 12 50
16 55 43 58 26 2 69 9 263 42 41 7 69 6 113 -5 108 -29 207 -36 308 -24 152
17 230 37 283 71 48 31 49 31 143 24 68 -5 127 -17 207 -43 62 -19 117 -40
123 -44 6 -5 29 -15 51 -23 83 -29 164 -95 258 -210 107 -129 107 -130 129
-233 17 -77 46 -354 46 -438 0 -62 -31 -157 -106 -323 -13 -29 -24 -57 -24
-62 0 -6 -21 -58 -46 -117 -175 -412 -196 -438 -559 -715 -5 -4 -46 -36 -90
-70 -44 -35 -91 -71 -105 -80 -14 -9 -42 -32 -62 -52 -21 -19 -38 -34 -38 -32
0 6 44 86 70 126 30 47 37 70 20 70 -5 0 -12 -11 -16 -25 -3 -14 -10 -25 -15
-25 -5 0 -9 -5 -9 -10 0 -6 -4 -16 -10 -23 -15 -18 -73 -109 -88 -138 -8 -14
-25 -39 -38 -54 -13 -15 -24 -32 -24 -36 0 -14 -79 -122 -120 -165 -36 -38
-149 -121 -205 -151 -28 -16 -52 -43 -37 -43 11 0 60 25 164 86 l57 33 43 -23
c79 -43 143 -80 178 -103 19 -13 42 -28 50 -33 8 -6 71 -47 140 -93 69 -45
136 -90 150 -100 14 -10 58 -43 99 -73 41 -30 76 -54 79 -54 2 0 2 9 -1 20 -3
11 -2 20 1 20 25 -1 151 -49 170 -65 2 -1 -7 -21 -18 -44 -12 -22 -26 -71 -31
-108 -12 -97 -11 -103 10 -103 15 0 19 11 25 76 3 42 11 94 18 116 11 38 13
39 47 33 20 -3 77 1 126 10 134 22 149 19 105 -25 -22 -22 -19 -40 6 -40 23 0
28 -29 8 -51 -13 -15 -15 -22 -6 -31 19 -19 15 -27 -35 -58 l-47 -30 31 0 c38
0 97 61 88 90 -3 10 0 30 7 45 11 24 10 29 -9 45 -15 11 -18 21 -12 31 15 25
10 56 -10 62 -11 3 -53 1 -93 -4 -138 -16 -177 -12 -213 19 -23 21 -62 37
-140 57 -59 16 -122 39 -139 51 -17 13 -62 44 -101 70 -38 27 -73 52 -76 57
-4 5 -22 19 -41 31 -20 11 -61 39 -93 61 -71 49 -101 68 -196 124 -41 24 -75
45 -77 46 -2 2 22 38 52 81 31 44 56 84 56 90 0 15 166 173 196 186 13 6 28 7
37 2 46 -26 176 -151 299 -289 20 -22 40 -37 44 -33 4 4 11 31 16 60 27 167
29 195 17 281 -6 49 -9 90 -7 92 6 6 165 -74 178 -90 7 -8 18 -15 24 -15 6 0
25 -13 41 -28 17 -15 42 -35 58 -45 l27 -17 -1 62 c0 59 -11 111 -54 251 -10
31 -16 60 -13 63 12 12 172 -78 253 -141 29 -23 49 -35 59 -35 18 0 -4 183
-35 294 -56 200 -88 293 -128 374 l-40 79 23 64 c35 92 65 166 92 227 13 29
24 58 24 66 0 7 14 40 30 72 46 89 43 193 -14 522 -24 135 -97 436 -115 470
-5 9 -12 37 -16 62 -4 24 -16 64 -26 88 -12 27 -19 67 -19 107 0 136 -19 172
-142 271 -46 37 -63 45 -90 42 l-33 -3 35 -19 c19 -10 37 -22 40 -25 3 -3 23
-20 45 -36 86 -64 113 -110 122 -205 l6 -65 -22 19 c-12 11 -27 30 -34 41 -41
73 -118 158 -222 244 -64 53 -40 51 -519 51 l-444 0 -17 -36 c-38 -81 6 -214
75 -228 49 -9 145 -7 175 4 32 12 45 45 33 88 -17 60 -4 69 22 14 21 -44 29
-52 49 -50 42 5 82 67 88 136 l6 61 26 -14 c115 -64 168 -205 112 -300 -83
-138 -225 -183 -422 -132 -119 31 -202 76 -237 130 -23 35 -27 51 -27 116 0
98 8 123 52 172 l37 41 -34 -4 c-28 -2 -38 -11 -64 -53 -33 -53 -50 -142 -62
-321 l-7 -92 -86 -16 c-130 -24 -362 -38 -491 -31 -147 8 -212 18 -330 51
l-95 26 0 122 c-1 160 -18 220 -82 276 -40 35 -52 40 -92 39 l-46 -1 35 -15
c93 -40 162 -135 145 -200 -18 -74 -104 -134 -252 -174 -136 -37 -292 -13
-331 51 -16 27 -7 149 16 200 l15 35 7 -39 c11 -61 56 -96 123 -96 69 0 92 17
89 64 l-3 37 31 -22 30 -23 25 24 c29 27 59 111 50 140 -6 19 -15 20 -153 20
-143 0 -148 -1 -180 -26z m1104 -534 l94 0 0 -27 c0 -56 -10 -72 -48 -79 -34
-7 -230 11 -240 21 -2 2 -1 25 3 51 l7 46 45 -6 c25 -3 88 -6 139 -6z m433
-784 c6 -36 25 -92 41 -125 17 -33 30 -64 30 -68 0 -4 11 -21 25 -38 17 -21
24 -25 25 -14 0 9 7 22 15 29 25 21 85 128 97 176 l12 43 13 -37 c22 -63 33
-133 37 -227 2 -49 4 -92 5 -94 2 -9 41 48 71 107 18 34 36 60 38 57 3 -3 16
-40 29 -83 32 -109 63 -323 70 -484 3 -76 10 -138 14 -138 5 0 9 4 9 8 0 5 9
20 21 33 12 13 32 45 45 71 30 59 53 71 119 66 67 -6 104 -32 138 -100 32 -64
33 -95 6 -183 -39 -128 -137 -192 -314 -204 l-90 -6 -65 -64 c-104 -102 -115
-111 -126 -111 -7 0 -17 -7 -24 -16 -17 -20 -136 -90 -222 -131 -225 -106
-507 -126 -795 -57 -157 38 -352 118 -432 178 -19 14 -40 26 -47 26 -21 0
-173 155 -191 195 -14 34 -17 76 -18 285 -1 239 -1 247 -28 324 -38 110 -36
145 13 341 34 133 43 130 37 -12 -3 -68 -2 -123 2 -123 17 0 124 126 163 192
l43 72 11 -89 c13 -102 21 -135 35 -135 16 0 148 107 210 170 30 31 70 77 88
103 17 26 33 47 34 47 1 0 2 -39 2 -88 1 -73 5 -96 28 -144 l27 -58 80 0 c88
0 128 14 205 73 65 49 153 150 176 200 7 15 15 27 19 27 3 0 13 -32 22 -71 16
-68 60 -159 77 -159 12 0 81 71 110 114 55 82 61 91 61 102 0 14 29 84 34 84
2 0 9 -29 15 -64z m-1707 -159 c-6 -139 10 -247 48 -325 16 -34 30 -65 30 -69
0 -3 21 -30 46 -60 35 -40 51 -52 65 -48 12 4 19 2 19 -7 0 -7 5 -47 10 -88 8
-58 7 -100 -6 -185 -9 -63 -13 -130 -10 -158 8 -57 48 -151 79 -187 16 -18 17
-20 3 -10 -10 8 -29 31 -42 50 -13 19 -40 55 -59 80 -38 50 -99 168 -111 215
-4 17 -17 46 -29 65 -49 78 -63 180 -72 520 -4 174 -3 245 6 273 7 20 16 37
20 37 4 0 6 -46 3 -103z m3259 -649 c20 -48 40 -102 44 -120 4 -18 15 -58 25
-88 35 -100 86 -340 73 -340 -7 0 -65 40 -88 62 -54 50 -235 145 -255 133 -12
-8 -13 -29 -1 -53 31 -61 57 -141 76 -232 13 -58 21 -107 19 -109 -2 -2 -27
19 -56 48 -28 28 -60 53 -70 57 -10 3 -18 9 -18 12 0 12 -170 92 -196 92 -18
0 -17 -6 2 -103 18 -88 16 -297 -3 -331 -10 -18 -12 -17 -29 10 -31 50 -144
177 -203 228 -91 78 -87 71 -49 94 29 18 106 77 188 142 295 234 301 242 426
492 24 47 44 93 44 101 0 23 13 29 24 10 5 -9 26 -57 47 -105z m-1048 -424 c4
-4 -1 -14 -11 -23 -38 -33 -270 -290 -352 -389 -46 -56 -88 -102 -91 -102 -4
0 -43 13 -86 29 -43 15 -95 31 -116 35 -57 11 -45 35 28 57 87 25 211 81 276
124 8 5 31 20 50 32 19 12 39 25 44 30 6 4 28 21 50 37 22 17 49 39 61 50 11
12 29 29 40 38 10 9 35 33 54 53 36 36 42 39 53 29z m-1861 -119 c29 -28 139
-105 151 -105 5 0 23 -11 40 -24 18 -13 43 -27 57 -31 14 -4 34 -13 45 -20 39
-24 240 -87 325 -101 47 -8 112 -19 145 -25 33 -5 68 -18 78 -28 17 -17 15
-18 -35 -41 -29 -14 -76 -39 -105 -57 -29 -18 -55 -33 -59 -33 -3 0 -28 16
-53 35 -26 19 -58 39 -72 45 -13 6 -53 28 -89 50 -36 22 -75 44 -87 50 -21 9
-132 79 -143 90 -3 3 -41 32 -85 65 -44 33 -84 66 -88 73 -5 7 -22 29 -39 48
-35 39 -23 47 14 9z m1136 -350 c-4 -51 3 -72 15 -42 10 23 27 -16 27 -61 0
-66 -31 -117 -90 -147 -60 -30 -88 -31 -141 -5 -66 34 -90 92 -73 179 7 34 24
33 24 -2 0 -16 3 -18 9 -8 9 15 0 65 -18 99 -11 22 -11 22 51 23 51 1 143 9
192 18 5 0 6 -24 4 -54z m-1374 -752 c2 -10 7 -53 11 -95 l7 -78 -41 0 c-23 0
-58 7 -77 15 -31 13 -35 18 -30 39 5 21 0 27 -42 47 -36 19 -48 30 -50 51 l-3
27 98 4 c54 1 103 4 110 5 6 1 14 -6 17 -15z"/>
<path d="M2140 2195 c-47 -8 -128 -19 -179 -25 -97 -10 -113 -19 -109 -55 4
-25 31 -25 182 -1 60 9 167 20 237 23 136 6 149 13 101 48 -34 25 -119 29
-232 10z"/>
<path d="M775 2175 c-16 -13 -27 -26 -25 -28 3 -3 50 -10 105 -16 55 -6 154
-21 220 -35 66 -13 123 -22 127 -20 15 9 8 43 -9 52 -10 6 -43 13 -73 17 -30
3 -95 18 -145 31 -115 31 -161 31 -200 -1z"/>
<path d="M900 2041 c-91 -20 -160 -48 -160 -65 0 -6 9 -17 20 -24 17 -10 26
-10 50 3 37 19 40 19 40 -2 0 -15 2 -14 15 4 26 37 96 41 109 6 10 -26 -3 -52
-36 -69 -37 -19 -71 -12 -86 18 -10 21 -11 20 -11 -13 -1 -34 14 -133 26 -173
3 -10 21 -36 41 -58 29 -32 33 -41 21 -50 -10 -7 6 -8 50 -4 35 3 86 6 112 6
27 0 49 5 49 10 0 6 -7 10 -15 10 -19 0 -19 14 -1 29 28 24 49 134 44 231 l-6
91 43 -7 c44 -6 65 6 42 23 -17 13 -140 42 -207 48 -35 3 -87 -2 -140 -14z
m240 -185 c0 -29 -4 -36 -31 -45 -42 -14 -42 -14 -68 10 l-22 21 22 24 c16 17
33 24 61 24 37 0 38 -1 38 -34z m-164 -116 c3 0 21 7 41 15 42 18 69 12 78
-16 10 -30 -4 -58 -35 -74 -51 -27 -90 -14 -90 30 0 16 -2 17 -10 5 -8 -13
-10 -13 -10 1 0 9 -9 19 -20 22 -11 3 -20 13 -20 22 0 13 6 16 25 11 17 -4 25
-2 26 6 1 7 3 5 6 -4 2 -10 7 -18 9 -18z"/>
<path d="M2042 2041 c-96 -24 -182 -67 -182 -92 0 -24 11 -24 41 -1 13 10 33
22 43 26 18 6 18 2 12 -68 -9 -99 12 -193 56 -247 17 -21 38 -39 47 -39 13 -1
12 -3 -3 -15 -31 -23 -14 -27 75 -15 46 5 107 10 136 10 29 0 53 5 53 10 0 6
-11 10 -25 10 -31 0 -32 10 -1 39 41 39 58 112 54 231 l-3 105 28 -3 c15 -2
27 1 27 7 0 6 7 11 16 11 9 0 14 6 12 13 -12 36 -263 48 -386 18z m78 -56 c30
-36 -26 -99 -88 -99 -37 0 -62 23 -58 52 7 45 118 81 146 47z m178 -71 c33 -9
31 -67 -3 -82 -36 -17 -75 -15 -97 5 -53 47 14 100 100 77z m-63 -122 c-3 -3
-11 0 -18 7 -9 10 -8 11 6 5 10 -3 15 -9 12 -12z m-154 -11 c-8 -14 -6 -24 9
-41 11 -13 20 -18 20 -11 0 8 16 10 52 8 41 -4 57 -10 75 -31 13 -15 20 -32
17 -38 -13 -21 -91 -48 -123 -42 -36 7 -48 20 -53 54 -2 16 -11 26 -28 30 -31
7 -33 38 -5 54 11 6 24 17 28 24 13 19 19 14 8 -7z m144 -9 c-3 -3 -11 0 -18
7 -9 10 -8 11 6 5 10 -3 15 -9 12 -12z m-109 -1 c5 -5 20 -11 34 -14 l25 -4
-26 -2 c-14 0 -34 6 -45 14 -10 8 -14 15 -8 15 5 0 14 -4 20 -9z"/>
<path d="M2730 1785 c0 -11 11 -15 41 -15 l41 0 -7 -42 c-10 -59 -29 -92 -67
-119 -40 -28 -50 -41 -39 -52 10 -10 60 14 82 39 24 28 59 93 59 109 0 29 19
24 40 -10 27 -44 45 -46 36 -2 -3 19 -22 47 -46 70 -35 33 -45 37 -90 37 -38
0 -50 -4 -50 -15z"/>
<path d="M836 1538 c-19 -27 -20 -38 -3 -38 7 0 18 14 24 30 13 35 1 40 -21 8z"/>
<path d="M977 1547 c-11 -29 -9 -43 4 -30 6 6 9 19 7 29 -3 18 -4 18 -11 1z"/>
<path d="M900 1539 c0 -5 5 -7 10 -4 6 3 10 8 10 11 0 2 -4 4 -10 4 -5 0 -10
-5 -10 -11z"/>
<path d="M2307 1536 c-4 -10 -5 -21 -2 -24 9 -9 17 6 13 25 -3 17 -4 17 -11
-1z"/>
<path d="M2352 1537 c-7 -9 -12 -28 -10 -44 l3 -28 13 23 c7 13 12 33 10 44
-3 19 -4 20 -16 5z"/>
<path d="M2237 1533 c-4 -3 -7 -15 -7 -26 0 -16 3 -17 15 -7 8 7 15 19 15 26
0 15 -12 19 -23 7z"/>
<path d="M2130 1509 c-13 -24 -4 -41 10 -19 10 16 13 40 5 40 -2 0 -9 -9 -15
-21z"/>
<path d="M2175 1511 c-3 -5 -1 -12 5 -16 5 -3 10 1 10 9 0 18 -6 21 -15 7z"/>
<path d="M1578 1430 c-216 -4 -250 -7 -268 -22 -26 -23 -25 -38 2 -74 28 -36
49 -53 66 -54 22 0 13 19 -17 34 -32 17 -46 53 -28 74 10 12 38 14 157 9 80
-3 192 -2 250 2 114 9 125 5 114 -39 -15 -65 -131 -138 -235 -147 -33 -3 -62
-10 -66 -16 -9 -15 151 0 193 18 54 23 97 60 124 109 25 46 25 46 6 81 -11 20
-26 34 -35 33 -9 -1 -127 -5 -263 -8z"/>
<path d="M2370 277 c0 -2 23 -18 51 -35 38 -25 55 -43 70 -79 60 -140 73 -163
91 -163 10 0 18 2 18 4 0 3 -20 44 -45 92 -25 48 -43 89 -40 92 2 3 16 -3 29
-12 48 -31 179 -78 448 -161 26 -8 75 -15 110 -14 59 1 61 2 28 11 -19 5 -102
32 -185 58 -82 27 -172 56 -200 65 -27 9 -74 27 -103 41 -29 13 -57 24 -64 24
-6 0 -40 15 -77 34 -60 30 -131 54 -131 43z"/>
<path d="M1802 169 c2 -6 8 -10 13 -10 5 0 11 4 13 10 2 6 -4 11 -13 11 -9 0
-15 -5 -13 -11z"/>
<path d="M3510 117 c0 -8 15 -20 33 -28 42 -18 41 -41 -3 -56 -33 -11 -33 -12
-8 -12 71 -2 102 41 53 73 -42 28 -75 37 -75 23z"/>
<path d="M1796 104 c-3 -9 -6 -36 -6 -60 0 -37 3 -44 20 -44 17 0 20 7 20 44
0 67 -19 100 -34 60z"/>
</g>
</svg>
